


[center]


[img]http://img69.imageshack.us/img69/6804/6wsz2.jpg[/img]


TITLE: 

Wuthering Heights 2011 SCR AC3 XViD - INSPiRAL

IMDB: 
 
http://www.imdb.com/title/tt1181614/


SOURCES:

VIDEO - MPEG FILES  THANKS
AUDIO - MPEG FILES  THANKS
SUBS  - None Add

STATS:

Video
ID                               : 0
Format                           : MPEG-4 Visual
Format profile                   : Advanced Simple@L5
Format settings, BVOP            : 2
Format settings, QPel            : No
Format settings, GMC             : No warppoints
Format settings, Matrix          : Default (MPEG)
Muxing mode                      : Packed bitstream
Codec ID                         : XVID
Codec ID/Hint                    : XviD
Duration                         : 2h 3mn
Bit rate                         : 1 901 Kbps
Width                            : 688 pixels
Height                           : 512 pixels
Display aspect ratio             : 4:3
Frame rate                       : 25.000 fps
Color space                      : YUV
Chroma subsampling               : 4:2:0
Bit depth                        : 8 bits
Scan type                        : Progressive
Compression mode                 : Lossy
Bits/(Pixel*Frame)               : 0.216
Stream size                      : 1.64 GiB (93%)
Writing library                  : XviD 64

Audio
ID                               : 1
Format                           : AC-3
Format/Info                      : Audio Coding 3
Mode extension                   : CM (complete main)
Codec ID                         : 2000
Duration                         : 2h 3mn
Bit rate mode                    : Constant
Bit rate                         : 128 Kbps
Channel(s)                       : 2 channels
Channel positions                : Front: L R
Sampling rate                    : 48.0 KHz
Bit depth                        : 16 bits
Compression mode                 : Lossy
Stream size                      : 113 MiB (6%)
Alignment                        : Aligned on interleaves
Interleave, duration             : 40 ms (1.00 video frame)
Interleave, preload duration     : 512 ms


NOTES:

Once again thanks too special friends for the mpeg files  
Source was alot better than the deep blue sea one.Audio once again ....AC3 track but not 5.1.
With this release only needed some lov'in ,brightness,contrast,sharpen rgbeq and thats it and only slight changes in them.
Audio stripped and remuxed.
Enjoy 


SCREENS:


[img]http://img862.imageshack.us/img862/5075/kaunf.png[/img]
[img]http://img31.imageshack.us/img31/210/9mu7n.png[/img]
[img]http://img862.imageshack.us/img862/7619/6aqi5.png[/img]
[img]http://img513.imageshack.us/img513/2451/bt4nk.png[/img][/center]